<svg xmlns="http://www.w3.org/2000/svg" viewBox="0 0 512 512">
<defs>
  <radialGradient id="bg" cx="50%" cy="42%" r="75%">
    <stop offset="0%" stop-color="#141c26"/>
    <stop offset="60%" stop-color="#0a0e14"/>
    <stop offset="100%" stop-color="#05070b"/>
  </radialGradient>
  <radialGradient id="core" cx="50%" cy="50%" r="50%">
    <stop offset="0%" stop-color="#fffaf0"/>
    <stop offset="100%" stop-color="#e3b563"/>
  </radialGradient>
</defs>

<circle cx="256" cy="256" r="248" fill="url(#bg)"/>
<circle cx="256" cy="256" r="238" fill="none" stroke="#e3b563" stroke-opacity="0.35" stroke-width="3"/>
<circle cx="256" cy="256" r="222" fill="none" stroke="#e3b563" stroke-opacity="0.18" stroke-width="1.5"/>

  <polygon points="335.2,176.8 287.5,217.1 294.9,224.5" fill="#f3ede0" opacity="0.55"/>
  <polygon points="335.2,335.2 294.9,287.5 287.5,294.9" fill="#f3ede0" opacity="0.55"/>
  <polygon points="176.8,335.2 224.5,294.9 217.1,287.5" fill="#f3ede0" opacity="0.55"/>
  <polygon points="176.8,176.8 217.1,224.5 224.5,217.1" fill="#f3ede0" opacity="0.55"/>
  <polygon points="256.0,78.0 248.2,206.6 263.8,206.6" fill="#d6a83c" opacity="0.97"/>
  <polygon points="434.0,256.0 305.4,248.2 305.4,263.8" fill="#e3b563" opacity="0.97"/>
  <polygon points="256.0,434.0 263.8,305.4 248.2,305.4" fill="#5c8a63" opacity="0.97"/>
  <polygon points="78.0,256.0 206.6,263.8 206.6,248.2" fill="#3fd0c9" opacity="0.97"/>

<circle cx="256" cy="256" r="21" fill="url(#core)"/>
<circle cx="256" cy="256" r="21" fill="none" stroke="#05070b" stroke-width="2.5"/>
</svg>